<?xml version="1.0" encoding="utf-8"?>
<!-- Generator: Adobe Illustrator 28.0.0, SVG Export Plug-In . SVG Version: 6.00 Build 0)  -->
<svg version="1.1" id="Layer_1" xmlns="http://www.w3.org/2000/svg" xmlns:xlink="http://www.w3.org/1999/xlink" x="0px" y="0px"
	 viewBox="0 0 16 16" style="enable-background:new 0 0 16 16;" xml:space="preserve">
<style type="text/css">
	.st0{fill:#F18B2F;}
</style>
<g>
	<path class="st0" d="M64,172.4c-35.4,0-64,28.7-64,64c0,9.8,2.2,19.1,6.2,27.5c2.7-1.5,7.3-5.2,11.4-8.8c4.5-3.9,8.5-7.7,8.9-8.6
		c1.8-3.4,6.8-16.2,11.7-22.9l-6.5-9.9l14.5-4.8L57.1,198l7.4,11.7c4.7,0.7,4.7,1.3,4.7,1.3c0,0,0.8-1.7,1.6-4c0.5-1.6,0.6-4.2,2-4
		c3.5,0.4,2.9,6.3,2.4,7.7c-0.5,1.4-0.4,2.1,0.1,2.1c0.5,0,33.1,10.7,34.3,21.5c0,0-2.4,3.8-6.6,3.5c-4.1-0.3-5.6-0.4-11.1-5.3
		c0,0,1.8,7.8,8,8.8c6.2,1,8.9-2.5,8.9-2.5S108.7,262,89.4,265c-10.9,1.6-18.9-4-19.8-4.6c0.6,0.6,4.9,4.5,13.2,7.9
		c-1.5,0-9.9,8.2-9.6,23.3c0.1,2.5,0.4,5.2,1,8.1c30.5-4.9,53.8-31.3,53.8-63.2C128,201,99.4,172.4,64,172.4z M45.4,207l-23.7,7.7
		c0.1,3.9,0.2,7.8,0.4,11.7c0.9,0.5,1,1.3,1.1,2.2c0,2.1,0.1,4.3,0.2,6.4c0,0.2,0,0.4,0,0.7c-1.2,0-2.4,0.1-3.7,0.1
		c0-0.3,0-0.5-0.1-0.7c-0.1-2.2-0.1-4.4-0.2-6.6c0-0.8,0.2-1.5,0.9-2.1c-0.1-3-0.2-6-0.3-9.1c0,0,0,0,0,0c0-0.7,0-1.3-0.1-2
		l-8.2,2.7l23.1-25.8l34.2-7.8l-2.5,2.4L45.4,207z"/>
	<path class="st0" d="M68.7,220.3c0,0-8.8,3.5-16.4,6.3c0,0,1.3-4.8,5.1-6.8C62.7,216.8,68.7,220.3,68.7,220.3z"/>
</g>
<g>
	<path class="st0" d="M32,89c-17.2,0-31.2,14-31.2,31.2c0,4.8,1.1,9.3,3,13.4c1.3-0.7,3.5-2.5,5.6-4.3c2.2-1.9,4.1-3.8,4.4-4.2
		c0.9-1.7,3.3-7.9,5.7-11.2l-3.2-4.8l7.1-2.3l5.3-5.3l3.6,5.7c2.3,0.3,2.3,0.6,2.3,0.6c0,0,0.4-0.8,0.8-2c0.3-0.8,0.3-2,1-2
		c1.7,0.2,1.4,3.1,1.2,3.7c-0.2,0.7-0.2,1,0.1,1c0.2,0,16.1,5.2,16.7,10.5c0,0-1.2,1.9-3.2,1.7c-2-0.2-2.7-0.2-5.4-2.6
		c0,0,0.9,3.8,3.9,4.3c3,0.5,4.3-1.2,4.3-1.2s-0.1,11.4-9.5,12.8c-5.3,0.8-9.2-1.9-9.7-2.2c0.3,0.3,2.4,2.2,6.4,3.8
		c-0.7,0-4.8,4-4.7,11.3c0,1.2,0.2,2.5,0.5,3.9c14.9-2.4,26.2-15.3,26.2-30.8C63.2,103,49.2,89,32,89z M22.9,105.9l-11.5,3.7
		c0.1,1.9,0.1,3.8,0.2,5.7c0.4,0.2,0.5,0.6,0.5,1.1c0,1,0.1,2.1,0.1,3.1c0,0.1,0,0.2,0,0.3c-0.6,0-1.2,0-1.8,0.1c0-0.1,0-0.2,0-0.3
		c0-1.1-0.1-2.1-0.1-3.2c0-0.4,0.1-0.7,0.5-1c-0.1-1.5-0.1-2.9-0.1-4.4c0,0,0,0,0,0c0-0.3,0-0.6,0-1l-4,1.3l11.3-12.6l16.7-3.8
		L33.2,96L22.9,105.9z"/>
	<path class="st0" d="M34.3,112.3c0,0-4.3,1.7-8,3c0,0,0.6-2.3,2.5-3.3C31.4,110.6,34.3,112.3,34.3,112.3z"/>
</g>
<g>
	<path class="st0" d="M16,37C7.4,37,0.4,43.8,0.4,52.1c0,2.3,0.5,4.5,1.5,6.5c0.6-0.3,1.8-1.2,2.8-2.1c1.1-0.9,2.1-1.8,2.2-2
		c0.4-0.8,1.6-3.8,2.8-5.4l-1.6-2.3l3.5-1.1l2.7-2.6l1.8,2.8c1.1,0.2,1.1,0.3,1.1,0.3c0,0,0.2-0.4,0.4-1c0.1-0.4,0.1-1,0.5-0.9
		c0.8,0.1,0.7,1.5,0.6,1.8c-0.1,0.3-0.1,0.5,0,0.5c0.1,0,8,2.5,8.4,5.1c0,0-0.6,0.9-1.6,0.8c-1-0.1-1.4-0.1-2.7-1.2
		c0,0,0.4,1.8,2,2.1c1.5,0.2,2.2-0.6,2.2-0.6s-0.1,5.5-4.8,6.2c-2.6,0.4-4.6-0.9-4.8-1.1c0.1,0.1,1.2,1.1,3.2,1.9
		c-0.4,0-2.4,1.9-2.3,5.5c0,0.6,0.1,1.2,0.2,1.9c7.4-1.1,13.1-7.4,13.1-14.9C31.6,43.8,24.6,37,16,37z M11.5,45.2L5.7,47
		c0,0.9,0.1,1.8,0.1,2.7C6,49.8,6,50,6.1,50.2c0,0.5,0,1,0,1.5c0,0.1,0,0.1,0,0.2c-0.3,0-0.6,0-0.9,0c0-0.1,0-0.1,0-0.2
		c0-0.5,0-1-0.1-1.6c0-0.2,0-0.4,0.2-0.5c0-0.7,0-1.4-0.1-2.1c0,0,0,0,0,0c0-0.2,0-0.3,0-0.5l-2,0.6l5.6-6.1l8.3-1.8l-0.6,0.6
		L11.5,45.2z"/>
	<path class="st0" d="M17.1,48.3c0,0-2.1,0.8-4,1.5c0,0,0.3-1.1,1.2-1.6C15.7,47.5,17.1,48.3,17.1,48.3z"/>
</g>
<g>
	<path class="st0" d="M8,0.4C3.6,0.4,0.1,3.8,0.1,8c0,1.2,0.3,2.3,0.8,3.3c0.3-0.2,0.9-0.6,1.4-1.1c0.6-0.5,1.1-0.9,1.1-1
		c0.2-0.4,0.8-1.9,1.4-2.8L4,5.3l1.8-0.6l1.4-1.3l0.9,1.4C8.6,4.9,8.6,5,8.6,5c0,0,0.1-0.2,0.2-0.5C8.9,4.3,8.9,4,9.1,4
		c0.4,0,0.4,0.8,0.3,0.9c-0.1,0.2,0,0.3,0,0.3c0.1,0,4.1,1.3,4.3,2.6c0,0-0.3,0.5-0.8,0.4c-0.5,0-0.7-0.1-1.4-0.6c0,0,0.2,0.9,1,1.1
		c0.8,0.1,1.1-0.3,1.1-0.3s0,2.8-2.4,3.2c-1.3,0.2-2.3-0.5-2.5-0.6c0.1,0.1,0.6,0.5,1.6,0.9c-0.2,0-1.2,1-1.2,2.8c0,0.3,0,0.6,0.1,1
		c3.8-0.6,6.7-3.8,6.7-7.6C15.9,3.8,12.4,0.4,8,0.4z M5.7,4.5L2.8,5.4c0,0.5,0,0.9,0,1.4C2.9,6.9,2.9,7,2.9,7.1c0,0.3,0,0.5,0,0.8
		c0,0,0,0.1,0,0.1C2.8,8,2.7,8,2.5,8c0,0,0-0.1,0-0.1c0-0.3,0-0.5,0-0.8c0-0.1,0-0.2,0.1-0.2c0-0.4,0-0.7,0-1.1c0,0,0,0,0,0
		c0-0.1,0-0.2,0-0.2l-1,0.3l2.9-3.1l4.2-0.9L8.3,2.1L5.7,4.5z"/>
	<path class="st0" d="M8.6,6.1c0,0-1.1,0.4-2,0.8c0,0,0.2-0.6,0.6-0.8C7.8,5.7,8.6,6.1,8.6,6.1z"/>
</g>
<g>
	<path class="st0" d="M90,321c-49.5,0-89.6,40.1-89.6,89.6c0,13.7,3.1,26.8,8.6,38.4c3.7-2.1,10.2-7.2,16-12.3
		c6.3-5.5,11.9-10.8,12.5-12c2.6-4.8,9.5-22.7,16.3-32.1l-9.1-13.8l20.3-6.7l15.3-15.3l10.3,16.4c6.6,0.9,6.6,1.8,6.6,1.8
		c0,0,1.2-2.4,2.2-5.7c0.7-2.3,0.8-5.8,2.8-5.6c4.9,0.5,4.1,8.8,3.4,10.7c-0.7,1.9-0.5,3,0.2,3c0.7,0,46.2,14.9,48,30.1
		c0,0-3.4,5.4-9.3,4.9c-5.7-0.5-7.8-0.6-15.5-7.4c0,0,2.6,10.9,11.2,12.3c8.7,1.4,12.5-3.5,12.5-3.5s-0.4,32.6-27.4,36.7
		c-15.2,2.3-26.5-5.5-27.7-6.4c0.8,0.8,6.8,6.3,18.5,11c-2.1,0-13.9,11.4-13.4,32.5c0.1,3.5,0.5,7.3,1.4,11.3
		c42.7-6.8,75.3-43.8,75.3-88.4C179.6,361.1,139.5,321,90,321z M63.9,369.4l-33.1,10.8c0.2,5.5,0.3,10.9,0.5,16.3
		c1.3,0.7,1.4,1.9,1.5,3.1c0,3,0.2,6,0.3,8.9c0,0.3,0,0.6,0,1c-1.7,0.1-3.4,0.1-5.2,0.2c0-0.4-0.1-0.7-0.1-1
		c-0.1-3.1-0.2-6.2-0.3-9.3c0-1.2,0.2-2.1,1.3-2.9c-0.2-4.2-0.3-8.5-0.4-12.7c0,0,0,0,0,0c0-0.9-0.1-1.9-0.1-2.8l-11.5,3.8
		l32.3-36.1l47.8-10.9l-3.6,3.4L63.9,369.4z"/>
	<path class="st0" d="M96.5,388c0,0-12.3,4.9-23,8.8c0,0,1.8-6.7,7.1-9.6C88.2,383.1,96.5,388,96.5,388z"/>
</g>
</svg>
