<?xml version="1.0" encoding="utf-8"?>
<!-- Generator: Adobe Illustrator 28.0.0, SVG Export Plug-In . SVG Version: 6.00 Build 0)  -->
<svg version="1.1" id="Layer_1" xmlns="http://www.w3.org/2000/svg" xmlns:xlink="http://www.w3.org/1999/xlink" x="0px" y="0px"
	 viewBox="0 0 124 106" style="enable-background:new 0 0 124 106;" xml:space="preserve">
<style type="text/css">
	.hm0{fill:#FFFFFF;}
</style>
<path class="hm0" d="M100.44,26.12H22.56c-3.62,0-6.56-2.94-6.56-6.56v0c0-3.62,2.94-6.56,6.56-6.56h77.88
	c3.62,0,6.56,2.94,6.56,6.56v0C107,23.19,104.06,26.12,100.44,26.12z"/>
<path class="hm0" d="M100.44,58.34H22.56c-3.62,0-6.56-2.94-6.56-6.56v0c0-3.62,2.94-6.56,6.56-6.56h77.88
	c3.62,0,6.56,2.94,6.56,6.56v0C107,55.4,104.06,58.34,100.44,58.34z"/>
<path class="hm0" d="M100.44,90.56H22.56c-3.62,0-6.56-2.94-6.56-6.56v0c0-3.62,2.94-6.56,6.56-6.56h77.88
	c3.62,0,6.56,2.94,6.56,6.56v0C107,87.62,104.06,90.56,100.44,90.56z"/>
</svg>
