<?xml version="1.0" encoding="UTF-8"?>
<svg id="Layer_1" data-name="Layer 1" xmlns="http://www.w3.org/2000/svg" version="1.1" viewBox="0 0 613.5 126.8">
  <defs>
    <style>
      .cls-1 {
        fill: #ec882a;
      }

      .cls-1, .cls-2 {
        stroke-width: 0px;
      }

      .cls-2 {
        fill: #fff;
      }
    </style>
  </defs>
  <path class="cls-1" d="M343.1,24"/>
  <path class="cls-2" d="M503.5,25.3c-1.1-.9-2.9-1.3-5.5-1.3s-4.1.4-5.3,1.2c-1.3.9-2,2.5-2,4.8v1.9c0,2.2.6,3.8,1.8,4.7,1.1.9,2.9,1.3,5.4,1.3s4.3-.4,5.5-1.2c1.3-.9,1.9-2.5,1.9-4.8v-1.9c0-2.2-.6-3.8-1.8-4.7Z"/>
  <g>
    <path class="cls-1" d="M434.5,85.8c-1.3-1.3-2.9-2-4.9-2h-5.9v-37.6c0-2.1-.7-3.8-2-5.3-1.3-1.4-3.1-2.1-5.2-2.1s-2.5.3-3.5.8-1.9,1.2-2.5,2.1l-35.6,43.6c-1.2,1.4-1.8,3.1-1.8,4.8s.8,3.7,2.4,5.1,3.2,2,4.9,2h28.7v14c0,2.1.7,3.9,2.1,5.3s3.1,2.1,5.1,2.1,3.9-.7,5.3-2.1,2.1-3.2,2.1-5.3v-14h5.9c1.9,0,3.6-.6,4.9-1.9s2-2.8,2-4.7-.7-3.6-2-4.9h0ZM409.1,63.3v20.5h-16.6s16.6-20.5,16.6-20.5Z"/>
    <path class="cls-2" d="M480.2,85.7h-27.7V30.3c0-1.8-.7-3.4-2-4.6s-2.8-1.9-4.5-1.9-3.6.6-4.9,1.9c-1.3,1.2-1.9,2.8-1.9,4.6v61.4c0,1.8.6,3.4,1.9,4.6,1.2,1.2,2.8,1.9,4.6,1.9h34.5c1.8,0,3.4-.6,4.6-1.8,1.2-1.2,1.9-2.6,1.9-4.4s-.6-3.3-1.9-4.5c-1.2-1.2-2.8-1.8-4.6-1.8Z"/>
    <path class="cls-2" d="M169.8,98.1c-4.7,0-8.9-.6-12.7-1.8-3.7-1.2-7.3-3.2-10.7-6.2-.9-.7-1.5-1.6-2-2.5s-.7-1.9-.7-2.8c0-1.5.6-2.9,1.7-4.1,1.1-1.2,2.5-1.8,4.2-1.8s2.4.4,3.4,1.2c2.5,2.1,5.1,3.6,7.6,4.7s5.6,1.6,9.3,1.6,4.8-.4,6.8-1.2c2.1-.8,3.7-1.8,5-3.1,1.3-1.3,1.9-2.8,1.9-4.5s-.6-3.7-1.8-5.1-3-2.6-5.5-3.6-5.6-1.7-9.4-2.3c-3.6-.5-6.8-1.4-9.5-2.5s-5-2.5-6.9-4.2c-1.8-1.7-3.2-3.7-4.2-6-.9-2.3-1.4-4.9-1.4-7.8,0-4.4,1.1-8.1,3.4-11.1,2.2-3.1,5.3-5.4,9.1-7s8-2.4,12.7-2.4,8.4.7,12.1,2c3.7,1.3,6.7,3,9.1,5,1.9,1.5,2.9,3.3,2.9,5.3s-.6,2.8-1.7,4c-1.1,1.2-2.5,1.8-4,1.8s-1.9-.3-2.7-.9c-1.1-.9-2.5-1.8-4.3-2.7-1.8-.8-3.7-1.5-5.7-2.1s-3.9-.9-5.6-.9c-2.9,0-5.3.4-7.3,1.1-2,.7-3.5,1.7-4.5,3s-1.5,2.7-1.5,4.4.6,3.7,1.8,5,2.9,2.3,5.1,3.1c2.2.8,4.9,1.5,7.9,2.1,4,.7,7.5,1.6,10.6,2.6,3,1,5.6,2.3,7.6,3.9,2,1.6,3.5,3.5,4.5,5.9,1,2.4,1.5,5.3,1.5,8.7s-1.2,8.1-3.6,11.2c-2.4,3.1-5.6,5.6-9.5,7.2-3.9,1.7-8.2,2.5-12.7,2.5l-.3.3Z"/>
    <path class="cls-2" d="M211.2,97.1c-1.7,0-3.2-.6-4.3-1.8-1.1-1.2-1.7-2.6-1.7-4.4V29c0-1.7.6-3.2,1.7-4.4,1.1-1.2,2.6-1.8,4.3-1.8s3.2.6,4.3,1.8c1.1,1.2,1.7,2.6,1.7,4.4v62.1c0,1.7-.6,3.2-1.7,4.4-1.1,1.2-2.6,1.8-4.3,1.8v-.2ZM243.1,43.4c1.5,0,2.9.6,4,1.9,1.1,1.3,1.7,2.5,1.7,3.7s-.8,3.1-2.4,4.5l-30.2,27.8-.5-13.9,23-22.2c1.3-1.3,2.7-1.9,4.4-1.9h0ZM244.6,97c-1.7,0-3.2-.7-4.4-2l-18.6-19.7,9.1-8.4,18.1,19.7c1.3,1.3,1.9,2.8,1.9,4.5s-.7,3.2-2.1,4.3c-1.4,1.1-2.7,1.7-4.1,1.7h.1Z"/>
    <path class="cls-2" d="M264.5,36.9c-2.3,0-3.9-.4-4.8-1.1-.9-.7-1.4-2-1.4-3.9v-1.9c0-1.9.5-3.3,1.6-4,1-.7,2.6-1.1,4.8-1.1s4,.4,4.9,1.1,1.4,2,1.4,3.9v1.9c0,1.9-.5,3.3-1.5,4s-2.6,1.1-4.9,1.1h-.1ZM270.6,91c0,1.7-.6,3.2-1.7,4.4-1.1,1.2-2.6,1.8-4.3,1.8s-3.2-.6-4.3-1.8c-1.1-1.2-1.7-2.6-1.7-4.4v-41.5c0-1.7.6-3.2,1.7-4.4s2.6-1.8,4.3-1.8,3.2.6,4.3,1.8c1.1,1.2,1.7,2.6,1.7,4.4v41.5Z"/>
    <path class="cls-2" d="M294,91c0,1.7-.6,3.2-1.8,4.4s-2.6,1.8-4.4,1.8-3.1-.6-4.2-1.8c-1.1-1.2-1.7-2.6-1.7-4.4V29c0-1.7.6-3.2,1.8-4.4,1.2-1.2,2.6-1.8,4.4-1.8s3.2.6,4.3,1.8c1.1,1.2,1.7,2.6,1.7,4.4v62.1h0Z"/>
    <path class="cls-2" d="M319.1,91c0,1.7-.6,3.2-1.8,4.4s-2.6,1.8-4.4,1.8-3.1-.6-4.2-1.8c-1.1-1.2-1.7-2.6-1.7-4.4V29c0-1.7.6-3.2,1.8-4.4,1.2-1.2,2.6-1.8,4.4-1.8s3.2.6,4.3,1.8c1.1,1.2,1.7,2.6,1.7,4.4v62.1h0Z"/>
    <path class="cls-2" d="M328.1,88.8c-.7-.9-1-2.1-.9-3.6,0-1.5.9-2.7,2.6-3.8,1.1-.7,2.2-1,3.4-.9s2.4.7,3.5,1.9c1.9,1.9,4,3.4,6.1,4.5s4.8,1.6,8,1.6,2.1-.2,3.3-.5c1.2-.2,2.3-.8,3.2-1.6.9-.8,1.4-2.1,1.4-3.9s-.5-2.6-1.5-3.5-2.3-1.6-4-2.2c-1.6-.6-3.5-1.2-5.5-1.7-2.1-.6-4.2-1.3-6.4-2-2.2-.7-4.2-1.7-6-2.9-1.8-1.2-3.3-2.7-4.4-4.7-1.1-1.9-1.7-4.4-1.7-7.3s.9-6.2,2.8-8.5,4.3-4.2,7.3-5.4c3-1.3,6.1-1.9,9.4-1.9s4.2.3,6.5.8,4.5,1.3,6.5,2.4c2.1,1.1,3.8,2.6,5.2,4.4.7,1,1.2,2.2,1.3,3.6.1,1.4-.5,2.7-1.9,3.8-1,.8-2.2,1.2-3.5,1.1-1.3,0-2.4-.6-3.3-1.4-1.1-1.5-2.7-2.6-4.6-3.5s-4.1-1.3-6.6-1.3-2.1,0-3.3.4c-1.2.2-2.2.7-3.1,1.5s-1.3,2-1.3,3.7.5,2.8,1.5,3.7,2.4,1.6,4.1,2.2,3.5,1.1,5.5,1.7c2,.5,4,1.2,6.1,1.9,2.1.7,4,1.7,5.7,2.9,1.7,1.2,3.1,2.8,4.2,4.7,1.1,1.9,1.6,4.3,1.6,7.3s-1,6.3-3,8.7c-2,2.4-4.5,4.2-7.5,5.5-3,1.2-6.1,1.9-9.2,1.9s-7.9-.7-11.8-2.1c-4-1.4-7.2-3.8-9.8-7.3v-.2Z"/>
    <path class="cls-2" d="M498,42.4c-2,0-3.7.7-5,2.1-1.3,1.4-2,3.1-2,5.1v41.5c0,2,.7,3.7,2,5.1s3,2.1,5,2.1,3.7-.7,5-2.1,2-3.1,2-5.1v-41.5c0-2-.7-3.7-2-5.1-1.3-1.4-3-2.1-5-2.1Z"/>
    <path class="cls-2" d="M549.7,49.9c0-1.9-.6-3.5-1.9-4.7-1.3-1.2-2.8-1.8-4.7-1.8h-8.1v-3.7c0-.6.2-1.4.4-2.2.3-.8.8-1.5,1.5-2.1s1.8-.9,3.2-.9,2.1,0,3.3.4c1.3.3,2.3.5,3,.5,1.5,0,2.9-.6,4.1-1.7s1.7-2.7,1.7-4.7-.6-3.2-1.7-4.3c-1.1-1-2.4-1.8-3.9-2.2-1.5-.4-3-.6-4.6-.6-6.9,0-12.2,1.8-15.8,5.2-3.5,3.5-5.3,7.8-5.3,12.8v3.6h-4.4c-1.9,0-3.5.6-4.7,1.8-1.3,1.2-1.9,2.8-1.9,4.7s.6,3.5,1.9,4.7,2.8,1.8,4.7,1.8h4.4v34.5c0,2,.7,3.7,2,5.1s3,2.1,5,2.1,3.7-.7,5-2.1,2-3.1,2-5.1v-34.5h8.1c1.9,0,3.5-.6,4.7-1.8,1.3-1.2,1.9-2.8,1.9-4.7h0Z"/>
    <path class="cls-2" d="M598.7,58.4c-1.4-3.3-3.4-6.3-5.8-8.8-2.4-2.5-5.2-4.5-8.4-6s-6.6-2.2-10.1-2.2-9,1.2-13.1,3.5c-4.1,2.4-7.4,5.8-10,10.2-2.5,4.4-3.8,9.7-3.8,15.9s1.2,10.1,3.5,14.3c2.3,4.2,5.7,7.6,10,10.1s9.5,3.7,15.3,3.7,6.8-.6,10.1-1.7c3.2-1.1,5.8-2.5,7.6-4,2.1-1.7,3.2-3.6,3.2-5.7s-.6-3-1.7-4.2c-2-2-4.9-2.5-8.3-.8-.7.4-1.6.9-2.5,1.5-.8.5-1.9,1-3.3,1.3-1.4.4-3.3.6-5.7.6s-4.9-.6-7.1-1.8c-2.2-1.2-4-3-5.4-5.4s-1.1-2.2-1.5-3.5h31.9c1.8,0,3.5-.6,4.9-1.7,1.4-1.2,2.2-2.7,2.3-4.7,0-3.7-.7-7.3-2.1-10.6h0ZM562.3,62.4c.7-2,1.6-3.6,2.8-4.7,1.1-1.1,2.5-2,4.1-2.5s3.4-.8,5.3-.8,3.7.4,5.4,1.3c1.7.8,3.1,2,4.3,3.4,1.1,1.3,1.6,2.7,1.8,4.3h-24c0-.3.2-.7.3-1h0Z"/>
    <g>
      <path class="cls-1" d="M70.9,48.5s-7.5,3-14.1,5.4c0,0,1.1-4.1,4.4-5.8,4.6-2.5,9.7.5,9.7.5h0Z"/>
      <path class="cls-1" d="M66.9,7.5c-30.3,0-54.8,24.5-54.8,54.8s1.9,16.4,5.3,23.5c2.3-1.3,6.2-4.4,9.8-7.5,3.9-3.3,7.3-6.6,7.7-7.4,1.6-2.9,5.8-13.9,10-19.6l-5.6-8.5,12.4-4.1,9.3-9.3,6.3,10.1c4,.6,4,1.1,4,1.1,0,0,.7-1.5,1.4-3.5.4-1.4.5-3.6,1.7-3.4,3,.3,2.5,5.4,2.1,6.6-.4,1.2-.3,1.8,0,1.8s28.3,9.1,29.4,18.4c0,0-2.1,3.3-5.7,3-3.5-.3-4.8-.4-9.5-4.5,0,0,1.6,6.7,6.9,7.5,5.3.9,7.6-2.1,7.6-2.1,0,0-.2,20-16.7,22.5-9.3,1.4-16.2-3.4-17-3.9.5.5,4.2,3.8,11.3,6.8-1.3,0-8.5,7-8.2,19.9,0,2.1.3,4.5.9,6.9,26.1-4.2,46.1-26.8,46.1-54.1S97.2,7.5,66.9,7.5ZM50.9,37.1l-20.3,6.6c0,3.4.2,6.7.3,10,.8.4.9,1.1.9,1.9,0,1.8,0,3.6.2,5.5v.6c-1.1,0-2.1,0-3.2,0v-.6c0-1.9-.1-3.8-.2-5.7,0-.7.1-1.3.8-1.8,0-2.6-.2-5.2-.2-7.8h0v-1.7l-7.1,2.3,19.8-22.1,29.3-6.7-2.2,2.1-18,17.3h0Z"/>
      <path class="cls-1" d="M70.9,48.5s-7.5,3-14.1,5.4c0,0,1.1-4.1,4.4-5.8,4.6-2.5,9.7.5,9.7.5h0Z"/>
    </g>
  </g>
</svg>